<?xml version="1.0" encoding="UTF-8" standalone="no"?>
<!DOCTYPE svg PUBLIC "-//W3C//DTD SVG 1.1//EN" "http://www.w3.org/Graphics/SVG/1.1/DTD/svg11.dtd">
<svg width="100%" height="100%" viewBox="0 0 1280 800" version="1.1" xmlns="http://www.w3.org/2000/svg" xmlns:xlink="http://www.w3.org/1999/xlink" xml:space="preserve" xmlns:serif="http://www.serif.com/" style="fill-rule:evenodd;clip-rule:evenodd;stroke-linejoin:round;stroke-miterlimit:1.41421;">
    <rect x="0" y="0" width="1280" height="800" style="fill:rgb(84,84,84);"/>
    <ellipse cx="0" cy="259.924" rx="496.89" ry="460.177" style="fill:rgb(0,143,255);"/>
    <circle cx="1162.38" cy="400" r="320.101" style="fill:rgb(255,0,104);"/>
    <g transform="matrix(0.549399,0,0,0.549399,272.323,184.147)">
        <path d="M1137,310.082C1137,264.38 1099.89,227.276 1054.19,227.276L284.279,227.276C238.577,227.276 201.473,264.38 201.473,310.082L201.473,475.695C201.473,521.398 238.577,558.502 284.279,558.502L1054.19,558.502C1099.89,558.502 1137,521.398 1137,475.695L1137,310.082Z" style="fill:url(#_Linear1);"/>
    </g>
    <g transform="matrix(12.623,0,0,12.623,-4012.28,-8414.07)">
        <text x="350.651px" y="701.359px" style="font-family:'SegoeUI-Bold', 'Segoe UI', sans-serif;font-weight:700;font-size:12px;fill:rgb(55,55,55);">Image</text>
    </g>
    <defs>
        <linearGradient id="_Linear1" x1="0" y1="0" x2="1" y2="0" gradientUnits="userSpaceOnUse" gradientTransform="matrix(3.58027e-14,331.226,-584.703,2.02818e-14,669.235,227.276)"><stop offset="0" style="stop-color:white;stop-opacity:1"/><stop offset="0.56" style="stop-color:rgb(248,248,248);stop-opacity:1"/><stop offset="1" style="stop-color:rgb(221,221,221);stop-opacity:1"/></linearGradient>
    </defs>
</svg>
