<?xml version="1.0" encoding="UTF-8" standalone="no"?>
<!DOCTYPE svg PUBLIC "-//W3C//DTD SVG 1.1//EN" "http://www.w3.org/Graphics/SVG/1.1/DTD/svg11.dtd">
<svg width="100%" height="100%" viewBox="0 0 800 800" version="1.1" xmlns="http://www.w3.org/2000/svg" xmlns:xlink="http://www.w3.org/1999/xlink" xml:space="preserve" xmlns:serif="http://www.serif.com/" style="fill-rule:evenodd;clip-rule:evenodd;stroke-linejoin:round;stroke-miterlimit:1.41421;">
    <g transform="matrix(1,0.540958,0,1,14.0394,-47.569)">
        <rect x="37.421" y="213.401" width="654.362" height="242.731" style="fill:rgb(41,89,110);"/>
    </g>
    <g transform="matrix(89.6657,0,0,89.6657,-18469,-28696.2)">
        <path d="M214.179,328.135C213.358,328.608 212.339,328.844 211.12,328.844C209.768,328.844 208.703,328.47 207.924,327.722C207.144,326.974 206.755,325.944 206.755,324.631C206.755,323.311 207.18,322.235 208.032,321.403C208.884,320.571 210.016,320.155 211.43,320.155C212.321,320.155 213.106,320.278 213.786,320.524L213.786,322.299C213.138,321.924 212.345,321.737 211.407,321.737C210.622,321.737 209.982,321.992 209.488,322.502C208.994,323.011 208.747,323.692 208.747,324.544C208.747,325.407 208.969,326.075 209.412,326.547C209.855,327.02 210.454,327.256 211.208,327.256C211.661,327.256 212.02,327.192 212.286,327.063L212.286,325.422L210.604,325.422L210.604,323.911L214.179,323.911L214.179,328.135Z" style="fill:url(#_Linear1);fill-rule:nonzero;"/>
    </g>
    <defs>
        <linearGradient id="_Linear1" x1="0" y1="0" x2="1" y2="0" gradientUnits="userSpaceOnUse" gradientTransform="matrix(5.59727,6.0859e-14,-6.0859e-14,5.59727,207.282,324.497)"><stop offset="0" style="stop-color:rgb(132,144,255);stop-opacity:1"/><stop offset="0.5" style="stop-color:rgb(107,178,253);stop-opacity:1"/><stop offset="1" style="stop-color:rgb(98,189,252);stop-opacity:1"/></linearGradient>
    </defs>
</svg>
